<mxfile host="app.diagrams.net" modified="2021-06-21T14:52:57.407Z" agent="5.0 (Windows)" etag="WyMITot6zupKNIe8usIm" version="14.8.0" type="github">
  <diagram id="lb7uelk7rGOf16NtDy5q" name="Page-1">
    <mxGraphModel dx="868" dy="440" grid="1" gridSize="10" guides="1" tooltips="1" connect="1" arrows="1" fold="1" page="1" pageScale="1" pageWidth="827" pageHeight="1169" math="0" shadow="0">
      <root>
        <mxCell id="0" />
        <mxCell id="1" parent="0" />
        <mxCell id="QEYR6Ies0GpfozYxRe6m-1" value="" style="shape=process;whiteSpace=wrap;html=1;backgroundOutline=1;size=0.2894736842105263;" vertex="1" parent="1">
          <mxGeometry x="80" y="120" width="380" height="60" as="geometry" />
        </mxCell>
        <mxCell id="QEYR6Ies0GpfozYxRe6m-2" value="Infrason" style="text;html=1;strokeColor=none;fillColor=none;align=center;verticalAlign=middle;whiteSpace=wrap;rounded=0;" vertex="1" parent="1">
          <mxGeometry x="110" y="100" width="40" height="20" as="geometry" />
        </mxCell>
        <mxCell id="QEYR6Ies0GpfozYxRe6m-3" value="Ultrason" style="text;html=1;strokeColor=none;fillColor=none;align=center;verticalAlign=middle;whiteSpace=wrap;rounded=0;" vertex="1" parent="1">
          <mxGeometry x="380" y="100" width="40" height="20" as="geometry" />
        </mxCell>
        <mxCell id="QEYR6Ies0GpfozYxRe6m-4" value="" style="curved=1;endArrow=classic;html=1;" edge="1" parent="1">
          <mxGeometry width="50" height="50" relative="1" as="geometry">
            <mxPoint x="80" y="150" as="sourcePoint" />
            <mxPoint x="460" y="150" as="targetPoint" />
            <Array as="points">
              <mxPoint x="120" y="180" />
              <mxPoint x="170" y="130" />
              <mxPoint x="220" y="170" />
              <mxPoint x="260" y="130" />
              <mxPoint x="300" y="170" />
              <mxPoint x="330" y="130" />
              <mxPoint x="350" y="170" />
              <mxPoint x="370" y="130" />
              <mxPoint x="380" y="170" />
              <mxPoint x="390" y="130" />
              <mxPoint x="400" y="170" />
              <mxPoint x="410" y="130" />
              <mxPoint x="420" y="170" />
              <mxPoint x="430" y="130" />
              <mxPoint x="440" y="170" />
              <mxPoint x="450" y="140" />
            </Array>
          </mxGeometry>
        </mxCell>
        <mxCell id="QEYR6Ies0GpfozYxRe6m-6" value="Audible" style="text;html=1;strokeColor=none;fillColor=none;align=center;verticalAlign=middle;whiteSpace=wrap;rounded=0;" vertex="1" parent="1">
          <mxGeometry x="250" y="100" width="40" height="20" as="geometry" />
        </mxCell>
        <mxCell id="QEYR6Ies0GpfozYxRe6m-7" value="&lt;font style=&quot;font-size: 9px&quot;&gt;20&lt;/font&gt;" style="text;html=1;strokeColor=none;fillColor=none;align=center;verticalAlign=middle;whiteSpace=wrap;rounded=0;" vertex="1" parent="1">
          <mxGeometry x="170" y="100" width="40" height="20" as="geometry" />
        </mxCell>
        <mxCell id="QEYR6Ies0GpfozYxRe6m-8" value="&lt;font style=&quot;font-size: 9px&quot;&gt;20 000&lt;/font&gt;" style="text;html=1;strokeColor=none;fillColor=none;align=center;verticalAlign=middle;whiteSpace=wrap;rounded=0;" vertex="1" parent="1">
          <mxGeometry x="330" y="100" width="40" height="20" as="geometry" />
        </mxCell>
        <mxCell id="QEYR6Ies0GpfozYxRe6m-9" value="" style="rounded=0;whiteSpace=wrap;html=1;" vertex="1" parent="1">
          <mxGeometry x="40" y="250" width="100" height="120" as="geometry" />
        </mxCell>
        <mxCell id="QEYR6Ies0GpfozYxRe6m-11" value="" style="curved=1;endArrow=classic;html=1;" edge="1" parent="1">
          <mxGeometry width="50" height="50" relative="1" as="geometry">
            <mxPoint x="380" y="290" as="sourcePoint" />
            <mxPoint x="100" y="280" as="targetPoint" />
            <Array as="points">
              <mxPoint x="360" y="270" />
              <mxPoint x="340" y="300" />
              <mxPoint x="320" y="270" />
              <mxPoint x="300" y="300" />
              <mxPoint x="280" y="270" />
              <mxPoint x="260" y="300" />
              <mxPoint x="240" y="270" />
              <mxPoint x="220" y="300" />
              <mxPoint x="200" y="270" />
              <mxPoint x="180" y="300" />
              <mxPoint x="160" y="270" />
            </Array>
          </mxGeometry>
        </mxCell>
        <mxCell id="QEYR6Ies0GpfozYxRe6m-14" value="" style="endArrow=classic;startArrow=classic;html=1;shadow=0;verticalAlign=middle;" edge="1" parent="1">
          <mxGeometry width="50" height="50" relative="1" as="geometry">
            <mxPoint x="80" y="307" as="sourcePoint" />
            <mxPoint x="450" y="307" as="targetPoint" />
          </mxGeometry>
        </mxCell>
        <mxCell id="QEYR6Ies0GpfozYxRe6m-34" style="edgeStyle=orthogonalEdgeStyle;rounded=0;orthogonalLoop=1;jettySize=auto;html=1;shadow=0;verticalAlign=middle;" edge="1" parent="1" source="QEYR6Ies0GpfozYxRe6m-15">
          <mxGeometry relative="1" as="geometry">
            <mxPoint x="450" y="660" as="targetPoint" />
          </mxGeometry>
        </mxCell>
        <mxCell id="QEYR6Ies0GpfozYxRe6m-15" value="Pile" style="swimlane;fontStyle=0;childLayout=stackLayout;horizontal=1;startSize=26;horizontalStack=0;resizeParent=1;resizeParentMax=0;resizeLast=0;collapsible=1;marginBottom=0;" vertex="1" parent="1">
          <mxGeometry x="180" y="600" width="140" height="130" as="geometry" />
        </mxCell>
        <mxCell id="QEYR6Ies0GpfozYxRe6m-16" value="Liste 1" style="text;strokeColor=none;fillColor=none;align=left;verticalAlign=top;spacingLeft=4;spacingRight=4;overflow=hidden;rotatable=0;points=[[0,0.5],[1,0.5]];portConstraint=eastwest;labelBackgroundColor=none;labelBorderColor=none;" vertex="1" parent="QEYR6Ies0GpfozYxRe6m-15">
          <mxGeometry y="26" width="140" height="26" as="geometry" />
        </mxCell>
        <mxCell id="QEYR6Ies0GpfozYxRe6m-17" value="Liste 2" style="text;fillColor=none;align=left;verticalAlign=top;spacingLeft=4;spacingRight=4;overflow=hidden;rotatable=0;points=[[0,0.5],[1,0.5]];portConstraint=eastwest;labelBorderColor=none;strokeColor=#000000;" vertex="1" parent="QEYR6Ies0GpfozYxRe6m-15">
          <mxGeometry y="52" width="140" height="26" as="geometry" />
        </mxCell>
        <mxCell id="QEYR6Ies0GpfozYxRe6m-18" value="Liste 3" style="text;strokeColor=none;fillColor=none;align=left;verticalAlign=top;spacingLeft=4;spacingRight=4;overflow=hidden;rotatable=0;points=[[0,0.5],[1,0.5]];portConstraint=eastwest;" vertex="1" parent="QEYR6Ies0GpfozYxRe6m-15">
          <mxGeometry y="78" width="140" height="26" as="geometry" />
        </mxCell>
        <mxCell id="QEYR6Ies0GpfozYxRe6m-20" value="Liste 4" style="text;fillColor=none;align=left;verticalAlign=top;spacingLeft=4;spacingRight=4;overflow=hidden;rotatable=0;points=[[0,0.5],[1,0.5]];portConstraint=eastwest;strokeColor=#000000;" vertex="1" parent="QEYR6Ies0GpfozYxRe6m-15">
          <mxGeometry y="104" width="140" height="26" as="geometry" />
        </mxCell>
        <mxCell id="QEYR6Ies0GpfozYxRe6m-22" value="494" style="shape=process;whiteSpace=wrap;html=1;backgroundOutline=1;labelBackgroundColor=none;strokeColor=#000000;size=0.3333333333333333;" vertex="1" parent="1">
          <mxGeometry x="350" y="440" width="190" height="60" as="geometry" />
        </mxCell>
        <mxCell id="QEYR6Ies0GpfozYxRe6m-24" value="499" style="shape=process;whiteSpace=wrap;html=1;backgroundOutline=1;labelBackgroundColor=none;strokeColor=#000000;size=0.3333333333333333;" vertex="1" parent="1">
          <mxGeometry x="540" y="440" width="190" height="60" as="geometry" />
        </mxCell>
        <mxCell id="QEYR6Ies0GpfozYxRe6m-31" style="edgeStyle=orthogonalEdgeStyle;rounded=0;orthogonalLoop=1;jettySize=auto;html=1;entryX=0;entryY=0.5;entryDx=0;entryDy=0;shadow=0;verticalAlign=middle;" edge="1" parent="1" source="QEYR6Ies0GpfozYxRe6m-25" target="QEYR6Ies0GpfozYxRe6m-16">
          <mxGeometry relative="1" as="geometry">
            <Array as="points">
              <mxPoint x="110" y="470" />
              <mxPoint x="110" y="639" />
            </Array>
          </mxGeometry>
        </mxCell>
        <mxCell id="QEYR6Ies0GpfozYxRe6m-25" value="&lt;font style=&quot;font-size: 16px&quot;&gt;Liste 1 :&lt;/font&gt;" style="text;html=1;strokeColor=none;fillColor=none;align=center;verticalAlign=middle;whiteSpace=wrap;rounded=0;labelBackgroundColor=none;" vertex="1" parent="1">
          <mxGeometry x="290" y="460" width="60" height="20" as="geometry" />
        </mxCell>
        <mxCell id="QEYR6Ies0GpfozYxRe6m-27" value="490" style="text;html=1;strokeColor=none;fillColor=none;align=center;verticalAlign=middle;whiteSpace=wrap;rounded=0;labelBackgroundColor=none;" vertex="1" parent="1">
          <mxGeometry x="360" y="460" width="40" height="20" as="geometry" />
        </mxCell>
        <mxCell id="QEYR6Ies0GpfozYxRe6m-28" value="500" style="text;html=1;strokeColor=none;fillColor=none;align=center;verticalAlign=middle;whiteSpace=wrap;rounded=0;labelBackgroundColor=none;" vertex="1" parent="1">
          <mxGeometry x="490" y="460" width="40" height="20" as="geometry" />
        </mxCell>
        <mxCell id="QEYR6Ies0GpfozYxRe6m-29" value="496" style="text;html=1;strokeColor=none;fillColor=none;align=center;verticalAlign=middle;whiteSpace=wrap;rounded=0;labelBackgroundColor=none;" vertex="1" parent="1">
          <mxGeometry x="550" y="460" width="40" height="20" as="geometry" />
        </mxCell>
        <mxCell id="QEYR6Ies0GpfozYxRe6m-30" value="465" style="text;html=1;strokeColor=none;fillColor=none;align=center;verticalAlign=middle;whiteSpace=wrap;rounded=0;labelBackgroundColor=none;" vertex="1" parent="1">
          <mxGeometry x="680" y="460" width="40" height="20" as="geometry" />
        </mxCell>
        <mxCell id="QEYR6Ies0GpfozYxRe6m-32" value="Ecran" style="swimlane;labelBackgroundColor=none;strokeColor=#000000;html=0;startSize=25;" vertex="1" parent="1">
          <mxGeometry x="450" y="565" width="200" height="185" as="geometry" />
        </mxCell>
        <mxCell id="QEYR6Ies0GpfozYxRe6m-39" value="" style="whiteSpace=wrap;html=1;labelBackgroundColor=none;strokeColor=#000000;fillColor=#030303;gradientColor=none;" vertex="1" parent="QEYR6Ies0GpfozYxRe6m-32">
          <mxGeometry y="25" width="200" height="40" as="geometry" />
        </mxCell>
        <mxCell id="QEYR6Ies0GpfozYxRe6m-40" value="" style="whiteSpace=wrap;html=1;labelBackgroundColor=none;strokeColor=#BDBDBD;fillColor=#030303;gradientColor=none;" vertex="1" parent="QEYR6Ies0GpfozYxRe6m-32">
          <mxGeometry y="65" width="200" height="40" as="geometry" />
        </mxCell>
        <mxCell id="QEYR6Ies0GpfozYxRe6m-42" value="" style="whiteSpace=wrap;html=1;labelBackgroundColor=none;strokeColor=#BDBDBD;fillColor=#030303;gradientColor=none;" vertex="1" parent="QEYR6Ies0GpfozYxRe6m-32">
          <mxGeometry y="145" width="200" height="40" as="geometry" />
        </mxCell>
        <mxCell id="QEYR6Ies0GpfozYxRe6m-41" value="" style="whiteSpace=wrap;html=1;labelBackgroundColor=none;strokeColor=#BDBDBD;fillColor=#030303;gradientColor=none;" vertex="1" parent="QEYR6Ies0GpfozYxRe6m-32">
          <mxGeometry y="105" width="200" height="40" as="geometry" />
        </mxCell>
        <mxCell id="QEYR6Ies0GpfozYxRe6m-37" value="Objetc" style="shape=umlActor;verticalLabelPosition=bottom;verticalAlign=top;html=1;outlineConnect=0;labelBackgroundColor=none;strokeColor=#BDBDBD;" vertex="1" parent="QEYR6Ies0GpfozYxRe6m-32">
          <mxGeometry x="55" y="45" width="90" height="120" as="geometry" />
        </mxCell>
        <mxCell id="QEYR6Ies0GpfozYxRe6m-33" style="edgeStyle=orthogonalEdgeStyle;rounded=0;orthogonalLoop=1;jettySize=auto;html=1;entryX=0;entryY=0.25;entryDx=0;entryDy=0;shadow=0;verticalAlign=middle;" edge="1" parent="1" source="QEYR6Ies0GpfozYxRe6m-16" target="QEYR6Ies0GpfozYxRe6m-32">
          <mxGeometry relative="1" as="geometry" />
        </mxCell>
        <mxCell id="QEYR6Ies0GpfozYxRe6m-35" style="edgeStyle=orthogonalEdgeStyle;rounded=0;orthogonalLoop=1;jettySize=auto;html=1;shadow=0;verticalAlign=middle;entryX=0;entryY=0.5;entryDx=0;entryDy=0;" edge="1" parent="1" source="QEYR6Ies0GpfozYxRe6m-18" target="QEYR6Ies0GpfozYxRe6m-41">
          <mxGeometry relative="1" as="geometry">
            <mxPoint x="450" y="700" as="targetPoint" />
          </mxGeometry>
        </mxCell>
        <mxCell id="QEYR6Ies0GpfozYxRe6m-36" style="edgeStyle=orthogonalEdgeStyle;rounded=0;orthogonalLoop=1;jettySize=auto;html=1;shadow=0;verticalAlign=middle;entryX=0;entryY=0.5;entryDx=0;entryDy=0;" edge="1" parent="1" source="QEYR6Ies0GpfozYxRe6m-20" target="QEYR6Ies0GpfozYxRe6m-42">
          <mxGeometry relative="1" as="geometry">
            <mxPoint x="450" y="740" as="targetPoint" />
            <Array as="points">
              <mxPoint x="380" y="717" />
              <mxPoint x="380" y="730" />
            </Array>
          </mxGeometry>
        </mxCell>
      </root>
    </mxGraphModel>
  </diagram>
</mxfile>
